G04 #@! TF.FileFunction,Legend,Bot*
%FSLAX46Y46*%
G04 Gerber Fmt 4.6, Leading zero omitted, Abs format (unit mm)*
G04 Created by KiCad (PCBNEW 4.0.6) date 02/27/18 09:20:59*
%MOMM*%
%LPD*%
G01*
G04 APERTURE LIST*
%ADD10C,0.100000*%
%ADD11C,0.120000*%
%ADD12C,0.150000*%
G04 APERTURE END LIST*
D10*
D11*
X120380000Y-79760000D02*
X118380000Y-79760000D01*
X118380000Y-77720000D02*
X120380000Y-77720000D01*
X119130000Y-84090000D02*
X119130000Y-86090000D01*
X117090000Y-86090000D02*
X117090000Y-84090000D01*
X137430000Y-103120000D02*
X139430000Y-103120000D01*
X139430000Y-105160000D02*
X137430000Y-105160000D01*
X148320000Y-105160000D02*
X146320000Y-105160000D01*
X146320000Y-103120000D02*
X148320000Y-103120000D01*
X134890000Y-75180000D02*
X136890000Y-75180000D01*
X136890000Y-77220000D02*
X134890000Y-77220000D01*
X140700000Y-83570000D02*
X138700000Y-83570000D01*
X138700000Y-81530000D02*
X140700000Y-81530000D01*
X133080000Y-83570000D02*
X131080000Y-83570000D01*
X131080000Y-81530000D02*
X133080000Y-81530000D01*
X145800000Y-84090000D02*
X145800000Y-86090000D01*
X143760000Y-86090000D02*
X143760000Y-84090000D01*
X131060000Y-100060000D02*
X131060000Y-98060000D01*
X133100000Y-98060000D02*
X133100000Y-100060000D01*
X129290000Y-87900000D02*
X129290000Y-89900000D01*
X127250000Y-89900000D02*
X127250000Y-87900000D01*
X117860000Y-63770000D02*
X117860000Y-65770000D01*
X115820000Y-65770000D02*
X115820000Y-63770000D01*
X126730000Y-72140000D02*
X124730000Y-72140000D01*
X124730000Y-70100000D02*
X126730000Y-70100000D01*
X126730000Y-74680000D02*
X124730000Y-74680000D01*
X124730000Y-72640000D02*
X126730000Y-72640000D01*
X126000000Y-63750000D02*
X128000000Y-63750000D01*
X128000000Y-65790000D02*
X126000000Y-65790000D01*
X126000000Y-61210000D02*
X128000000Y-61210000D01*
X128000000Y-63250000D02*
X126000000Y-63250000D01*
X136890000Y-78940000D02*
X134890000Y-78940000D01*
X134890000Y-81080000D02*
X136890000Y-81080000D01*
X135620000Y-64970000D02*
X133620000Y-64970000D01*
X133620000Y-67110000D02*
X135620000Y-67110000D01*
D12*
X119546666Y-80847143D02*
X119594285Y-80894762D01*
X119737142Y-80942381D01*
X119832380Y-80942381D01*
X119975238Y-80894762D01*
X120070476Y-80799524D01*
X120118095Y-80704286D01*
X120165714Y-80513810D01*
X120165714Y-80370952D01*
X120118095Y-80180476D01*
X120070476Y-80085238D01*
X119975238Y-79990000D01*
X119832380Y-79942381D01*
X119737142Y-79942381D01*
X119594285Y-79990000D01*
X119546666Y-80037619D01*
X118594285Y-80942381D02*
X119165714Y-80942381D01*
X118880000Y-80942381D02*
X118880000Y-79942381D01*
X118975238Y-80085238D01*
X119070476Y-80180476D01*
X119165714Y-80228095D01*
X120217143Y-84923334D02*
X120264762Y-84875715D01*
X120312381Y-84732858D01*
X120312381Y-84637620D01*
X120264762Y-84494762D01*
X120169524Y-84399524D01*
X120074286Y-84351905D01*
X119883810Y-84304286D01*
X119740952Y-84304286D01*
X119550476Y-84351905D01*
X119455238Y-84399524D01*
X119360000Y-84494762D01*
X119312381Y-84637620D01*
X119312381Y-84732858D01*
X119360000Y-84875715D01*
X119407619Y-84923334D01*
X119407619Y-85304286D02*
X119360000Y-85351905D01*
X119312381Y-85447143D01*
X119312381Y-85685239D01*
X119360000Y-85780477D01*
X119407619Y-85828096D01*
X119502857Y-85875715D01*
X119598095Y-85875715D01*
X119740952Y-85828096D01*
X120312381Y-85256667D01*
X120312381Y-85875715D01*
X138596666Y-102747143D02*
X138644285Y-102794762D01*
X138787142Y-102842381D01*
X138882380Y-102842381D01*
X139025238Y-102794762D01*
X139120476Y-102699524D01*
X139168095Y-102604286D01*
X139215714Y-102413810D01*
X139215714Y-102270952D01*
X139168095Y-102080476D01*
X139120476Y-101985238D01*
X139025238Y-101890000D01*
X138882380Y-101842381D01*
X138787142Y-101842381D01*
X138644285Y-101890000D01*
X138596666Y-101937619D01*
X138263333Y-101842381D02*
X137644285Y-101842381D01*
X137977619Y-102223333D01*
X137834761Y-102223333D01*
X137739523Y-102270952D01*
X137691904Y-102318571D01*
X137644285Y-102413810D01*
X137644285Y-102651905D01*
X137691904Y-102747143D01*
X137739523Y-102794762D01*
X137834761Y-102842381D01*
X138120476Y-102842381D01*
X138215714Y-102794762D01*
X138263333Y-102747143D01*
X147486666Y-106247143D02*
X147534285Y-106294762D01*
X147677142Y-106342381D01*
X147772380Y-106342381D01*
X147915238Y-106294762D01*
X148010476Y-106199524D01*
X148058095Y-106104286D01*
X148105714Y-105913810D01*
X148105714Y-105770952D01*
X148058095Y-105580476D01*
X148010476Y-105485238D01*
X147915238Y-105390000D01*
X147772380Y-105342381D01*
X147677142Y-105342381D01*
X147534285Y-105390000D01*
X147486666Y-105437619D01*
X146629523Y-105675714D02*
X146629523Y-106342381D01*
X146867619Y-105294762D02*
X147105714Y-106009048D01*
X146486666Y-106009048D01*
X136056666Y-74807143D02*
X136104285Y-74854762D01*
X136247142Y-74902381D01*
X136342380Y-74902381D01*
X136485238Y-74854762D01*
X136580476Y-74759524D01*
X136628095Y-74664286D01*
X136675714Y-74473810D01*
X136675714Y-74330952D01*
X136628095Y-74140476D01*
X136580476Y-74045238D01*
X136485238Y-73950000D01*
X136342380Y-73902381D01*
X136247142Y-73902381D01*
X136104285Y-73950000D01*
X136056666Y-73997619D01*
X135151904Y-73902381D02*
X135628095Y-73902381D01*
X135675714Y-74378571D01*
X135628095Y-74330952D01*
X135532857Y-74283333D01*
X135294761Y-74283333D01*
X135199523Y-74330952D01*
X135151904Y-74378571D01*
X135104285Y-74473810D01*
X135104285Y-74711905D01*
X135151904Y-74807143D01*
X135199523Y-74854762D01*
X135294761Y-74902381D01*
X135532857Y-74902381D01*
X135628095Y-74854762D01*
X135675714Y-74807143D01*
X139866666Y-84657143D02*
X139914285Y-84704762D01*
X140057142Y-84752381D01*
X140152380Y-84752381D01*
X140295238Y-84704762D01*
X140390476Y-84609524D01*
X140438095Y-84514286D01*
X140485714Y-84323810D01*
X140485714Y-84180952D01*
X140438095Y-83990476D01*
X140390476Y-83895238D01*
X140295238Y-83800000D01*
X140152380Y-83752381D01*
X140057142Y-83752381D01*
X139914285Y-83800000D01*
X139866666Y-83847619D01*
X139009523Y-83752381D02*
X139200000Y-83752381D01*
X139295238Y-83800000D01*
X139342857Y-83847619D01*
X139438095Y-83990476D01*
X139485714Y-84180952D01*
X139485714Y-84561905D01*
X139438095Y-84657143D01*
X139390476Y-84704762D01*
X139295238Y-84752381D01*
X139104761Y-84752381D01*
X139009523Y-84704762D01*
X138961904Y-84657143D01*
X138914285Y-84561905D01*
X138914285Y-84323810D01*
X138961904Y-84228571D01*
X139009523Y-84180952D01*
X139104761Y-84133333D01*
X139295238Y-84133333D01*
X139390476Y-84180952D01*
X139438095Y-84228571D01*
X139485714Y-84323810D01*
X132246666Y-84657143D02*
X132294285Y-84704762D01*
X132437142Y-84752381D01*
X132532380Y-84752381D01*
X132675238Y-84704762D01*
X132770476Y-84609524D01*
X132818095Y-84514286D01*
X132865714Y-84323810D01*
X132865714Y-84180952D01*
X132818095Y-83990476D01*
X132770476Y-83895238D01*
X132675238Y-83800000D01*
X132532380Y-83752381D01*
X132437142Y-83752381D01*
X132294285Y-83800000D01*
X132246666Y-83847619D01*
X131913333Y-83752381D02*
X131246666Y-83752381D01*
X131675238Y-84752381D01*
X146887143Y-84923334D02*
X146934762Y-84875715D01*
X146982381Y-84732858D01*
X146982381Y-84637620D01*
X146934762Y-84494762D01*
X146839524Y-84399524D01*
X146744286Y-84351905D01*
X146553810Y-84304286D01*
X146410952Y-84304286D01*
X146220476Y-84351905D01*
X146125238Y-84399524D01*
X146030000Y-84494762D01*
X145982381Y-84637620D01*
X145982381Y-84732858D01*
X146030000Y-84875715D01*
X146077619Y-84923334D01*
X146982381Y-85399524D02*
X146982381Y-85590000D01*
X146934762Y-85685239D01*
X146887143Y-85732858D01*
X146744286Y-85828096D01*
X146553810Y-85875715D01*
X146172857Y-85875715D01*
X146077619Y-85828096D01*
X146030000Y-85780477D01*
X145982381Y-85685239D01*
X145982381Y-85494762D01*
X146030000Y-85399524D01*
X146077619Y-85351905D01*
X146172857Y-85304286D01*
X146410952Y-85304286D01*
X146506190Y-85351905D01*
X146553810Y-85399524D01*
X146601429Y-85494762D01*
X146601429Y-85685239D01*
X146553810Y-85780477D01*
X146506190Y-85828096D01*
X146410952Y-85875715D01*
X130687143Y-98417143D02*
X130734762Y-98369524D01*
X130782381Y-98226667D01*
X130782381Y-98131429D01*
X130734762Y-97988571D01*
X130639524Y-97893333D01*
X130544286Y-97845714D01*
X130353810Y-97798095D01*
X130210952Y-97798095D01*
X130020476Y-97845714D01*
X129925238Y-97893333D01*
X129830000Y-97988571D01*
X129782381Y-98131429D01*
X129782381Y-98226667D01*
X129830000Y-98369524D01*
X129877619Y-98417143D01*
X130782381Y-99369524D02*
X130782381Y-98798095D01*
X130782381Y-99083809D02*
X129782381Y-99083809D01*
X129925238Y-98988571D01*
X130020476Y-98893333D01*
X130068095Y-98798095D01*
X129782381Y-99988571D02*
X129782381Y-100083810D01*
X129830000Y-100179048D01*
X129877619Y-100226667D01*
X129972857Y-100274286D01*
X130163333Y-100321905D01*
X130401429Y-100321905D01*
X130591905Y-100274286D01*
X130687143Y-100226667D01*
X130734762Y-100179048D01*
X130782381Y-100083810D01*
X130782381Y-99988571D01*
X130734762Y-99893333D01*
X130687143Y-99845714D01*
X130591905Y-99798095D01*
X130401429Y-99750476D01*
X130163333Y-99750476D01*
X129972857Y-99798095D01*
X129877619Y-99845714D01*
X129830000Y-99893333D01*
X129782381Y-99988571D01*
X130377143Y-88257143D02*
X130424762Y-88209524D01*
X130472381Y-88066667D01*
X130472381Y-87971429D01*
X130424762Y-87828571D01*
X130329524Y-87733333D01*
X130234286Y-87685714D01*
X130043810Y-87638095D01*
X129900952Y-87638095D01*
X129710476Y-87685714D01*
X129615238Y-87733333D01*
X129520000Y-87828571D01*
X129472381Y-87971429D01*
X129472381Y-88066667D01*
X129520000Y-88209524D01*
X129567619Y-88257143D01*
X130472381Y-89209524D02*
X130472381Y-88638095D01*
X130472381Y-88923809D02*
X129472381Y-88923809D01*
X129615238Y-88828571D01*
X129710476Y-88733333D01*
X129758095Y-88638095D01*
X130472381Y-90161905D02*
X130472381Y-89590476D01*
X130472381Y-89876190D02*
X129472381Y-89876190D01*
X129615238Y-89780952D01*
X129710476Y-89685714D01*
X129758095Y-89590476D01*
X118947143Y-64127143D02*
X118994762Y-64079524D01*
X119042381Y-63936667D01*
X119042381Y-63841429D01*
X118994762Y-63698571D01*
X118899524Y-63603333D01*
X118804286Y-63555714D01*
X118613810Y-63508095D01*
X118470952Y-63508095D01*
X118280476Y-63555714D01*
X118185238Y-63603333D01*
X118090000Y-63698571D01*
X118042381Y-63841429D01*
X118042381Y-63936667D01*
X118090000Y-64079524D01*
X118137619Y-64127143D01*
X119042381Y-65079524D02*
X119042381Y-64508095D01*
X119042381Y-64793809D02*
X118042381Y-64793809D01*
X118185238Y-64698571D01*
X118280476Y-64603333D01*
X118328095Y-64508095D01*
X118137619Y-65460476D02*
X118090000Y-65508095D01*
X118042381Y-65603333D01*
X118042381Y-65841429D01*
X118090000Y-65936667D01*
X118137619Y-65984286D01*
X118232857Y-66031905D01*
X118328095Y-66031905D01*
X118470952Y-65984286D01*
X119042381Y-65412857D01*
X119042381Y-66031905D01*
X126372857Y-73227143D02*
X126420476Y-73274762D01*
X126563333Y-73322381D01*
X126658571Y-73322381D01*
X126801429Y-73274762D01*
X126896667Y-73179524D01*
X126944286Y-73084286D01*
X126991905Y-72893810D01*
X126991905Y-72750952D01*
X126944286Y-72560476D01*
X126896667Y-72465238D01*
X126801429Y-72370000D01*
X126658571Y-72322381D01*
X126563333Y-72322381D01*
X126420476Y-72370000D01*
X126372857Y-72417619D01*
X125420476Y-73322381D02*
X125991905Y-73322381D01*
X125706191Y-73322381D02*
X125706191Y-72322381D01*
X125801429Y-72465238D01*
X125896667Y-72560476D01*
X125991905Y-72608095D01*
X125087143Y-72322381D02*
X124468095Y-72322381D01*
X124801429Y-72703333D01*
X124658571Y-72703333D01*
X124563333Y-72750952D01*
X124515714Y-72798571D01*
X124468095Y-72893810D01*
X124468095Y-73131905D01*
X124515714Y-73227143D01*
X124563333Y-73274762D01*
X124658571Y-73322381D01*
X124944286Y-73322381D01*
X125039524Y-73274762D01*
X125087143Y-73227143D01*
X126372857Y-75767143D02*
X126420476Y-75814762D01*
X126563333Y-75862381D01*
X126658571Y-75862381D01*
X126801429Y-75814762D01*
X126896667Y-75719524D01*
X126944286Y-75624286D01*
X126991905Y-75433810D01*
X126991905Y-75290952D01*
X126944286Y-75100476D01*
X126896667Y-75005238D01*
X126801429Y-74910000D01*
X126658571Y-74862381D01*
X126563333Y-74862381D01*
X126420476Y-74910000D01*
X126372857Y-74957619D01*
X125420476Y-75862381D02*
X125991905Y-75862381D01*
X125706191Y-75862381D02*
X125706191Y-74862381D01*
X125801429Y-75005238D01*
X125896667Y-75100476D01*
X125991905Y-75148095D01*
X124563333Y-75195714D02*
X124563333Y-75862381D01*
X124801429Y-74814762D02*
X125039524Y-75529048D01*
X124420476Y-75529048D01*
X127642857Y-63377143D02*
X127690476Y-63424762D01*
X127833333Y-63472381D01*
X127928571Y-63472381D01*
X128071429Y-63424762D01*
X128166667Y-63329524D01*
X128214286Y-63234286D01*
X128261905Y-63043810D01*
X128261905Y-62900952D01*
X128214286Y-62710476D01*
X128166667Y-62615238D01*
X128071429Y-62520000D01*
X127928571Y-62472381D01*
X127833333Y-62472381D01*
X127690476Y-62520000D01*
X127642857Y-62567619D01*
X126690476Y-63472381D02*
X127261905Y-63472381D01*
X126976191Y-63472381D02*
X126976191Y-62472381D01*
X127071429Y-62615238D01*
X127166667Y-62710476D01*
X127261905Y-62758095D01*
X125785714Y-62472381D02*
X126261905Y-62472381D01*
X126309524Y-62948571D01*
X126261905Y-62900952D01*
X126166667Y-62853333D01*
X125928571Y-62853333D01*
X125833333Y-62900952D01*
X125785714Y-62948571D01*
X125738095Y-63043810D01*
X125738095Y-63281905D01*
X125785714Y-63377143D01*
X125833333Y-63424762D01*
X125928571Y-63472381D01*
X126166667Y-63472381D01*
X126261905Y-63424762D01*
X126309524Y-63377143D01*
X127642857Y-60837143D02*
X127690476Y-60884762D01*
X127833333Y-60932381D01*
X127928571Y-60932381D01*
X128071429Y-60884762D01*
X128166667Y-60789524D01*
X128214286Y-60694286D01*
X128261905Y-60503810D01*
X128261905Y-60360952D01*
X128214286Y-60170476D01*
X128166667Y-60075238D01*
X128071429Y-59980000D01*
X127928571Y-59932381D01*
X127833333Y-59932381D01*
X127690476Y-59980000D01*
X127642857Y-60027619D01*
X126690476Y-60932381D02*
X127261905Y-60932381D01*
X126976191Y-60932381D02*
X126976191Y-59932381D01*
X127071429Y-60075238D01*
X127166667Y-60170476D01*
X127261905Y-60218095D01*
X125833333Y-59932381D02*
X126023810Y-59932381D01*
X126119048Y-59980000D01*
X126166667Y-60027619D01*
X126261905Y-60170476D01*
X126309524Y-60360952D01*
X126309524Y-60741905D01*
X126261905Y-60837143D01*
X126214286Y-60884762D01*
X126119048Y-60932381D01*
X125928571Y-60932381D01*
X125833333Y-60884762D01*
X125785714Y-60837143D01*
X125738095Y-60741905D01*
X125738095Y-60503810D01*
X125785714Y-60408571D01*
X125833333Y-60360952D01*
X125928571Y-60313333D01*
X126119048Y-60313333D01*
X126214286Y-60360952D01*
X126261905Y-60408571D01*
X126309524Y-60503810D01*
X136056666Y-82312381D02*
X136390000Y-81836190D01*
X136628095Y-82312381D02*
X136628095Y-81312381D01*
X136247142Y-81312381D01*
X136151904Y-81360000D01*
X136104285Y-81407619D01*
X136056666Y-81502857D01*
X136056666Y-81645714D01*
X136104285Y-81740952D01*
X136151904Y-81788571D01*
X136247142Y-81836190D01*
X136628095Y-81836190D01*
X135104285Y-82312381D02*
X135675714Y-82312381D01*
X135390000Y-82312381D02*
X135390000Y-81312381D01*
X135485238Y-81455238D01*
X135580476Y-81550476D01*
X135675714Y-81598095D01*
X134786666Y-68342381D02*
X135120000Y-67866190D01*
X135358095Y-68342381D02*
X135358095Y-67342381D01*
X134977142Y-67342381D01*
X134881904Y-67390000D01*
X134834285Y-67437619D01*
X134786666Y-67532857D01*
X134786666Y-67675714D01*
X134834285Y-67770952D01*
X134881904Y-67818571D01*
X134977142Y-67866190D01*
X135358095Y-67866190D01*
X134405714Y-67437619D02*
X134358095Y-67390000D01*
X134262857Y-67342381D01*
X134024761Y-67342381D01*
X133929523Y-67390000D01*
X133881904Y-67437619D01*
X133834285Y-67532857D01*
X133834285Y-67628095D01*
X133881904Y-67770952D01*
X134453333Y-68342381D01*
X133834285Y-68342381D01*
M02*
