G04 #@! TF.FileFunction,Soldermask,Bot*
%FSLAX46Y46*%
G04 Gerber Fmt 4.6, Leading zero omitted, Abs format (unit mm)*
G04 Created by KiCad (PCBNEW 4.0.6) date 02/27/18 09:20:59*
%MOMM*%
%LPD*%
G01*
G04 APERTURE LIST*
%ADD10C,0.100000*%
%ADD11C,2.400000*%
%ADD12R,2.400000X2.000000*%
%ADD13R,2.000000X2.400000*%
%ADD14R,2.100000X2.100000*%
%ADD15O,2.100000X2.100000*%
%ADD16R,2.400000X2.100000*%
%ADD17C,1.900000*%
G04 APERTURE END LIST*
D10*
D11*
X156000000Y-64000000D03*
D12*
X117380000Y-78740000D03*
X121380000Y-78740000D03*
D13*
X118110000Y-87090000D03*
X118110000Y-83090000D03*
D12*
X140430000Y-104140000D03*
X136430000Y-104140000D03*
X145320000Y-104140000D03*
X149320000Y-104140000D03*
X137890000Y-76200000D03*
X133890000Y-76200000D03*
X137700000Y-82550000D03*
X141700000Y-82550000D03*
X130080000Y-82550000D03*
X134080000Y-82550000D03*
D13*
X144780000Y-87090000D03*
X144780000Y-83090000D03*
X132080000Y-97060000D03*
X132080000Y-101060000D03*
X128270000Y-90900000D03*
X128270000Y-86900000D03*
X116840000Y-66770000D03*
X116840000Y-62770000D03*
D12*
X123730000Y-71120000D03*
X127730000Y-71120000D03*
X123730000Y-73660000D03*
X127730000Y-73660000D03*
X129000000Y-64770000D03*
X125000000Y-64770000D03*
X129000000Y-62230000D03*
X125000000Y-62230000D03*
D14*
X113030000Y-66040000D03*
D15*
X113030000Y-63500000D03*
D16*
X133890000Y-80010000D03*
X137890000Y-80010000D03*
X132620000Y-66040000D03*
X136620000Y-66040000D03*
D17*
X121920000Y-81280000D03*
X121920000Y-86160000D03*
X139700000Y-100330000D03*
X144580000Y-100330000D03*
D14*
X113030000Y-78740000D03*
D15*
X113030000Y-81280000D03*
X113030000Y-83820000D03*
X113030000Y-86360000D03*
X113030000Y-88900000D03*
X113030000Y-91440000D03*
X113030000Y-93980000D03*
X113030000Y-96520000D03*
D14*
X125730000Y-111760000D03*
D15*
X128270000Y-111760000D03*
X130810000Y-111760000D03*
X133350000Y-111760000D03*
X135890000Y-111760000D03*
X138430000Y-111760000D03*
X140970000Y-111760000D03*
X143510000Y-111760000D03*
D14*
X148780500Y-75476100D03*
D15*
X148780500Y-72936100D03*
X148780500Y-70396100D03*
X148780500Y-67856100D03*
X148780500Y-65316100D03*
X148780500Y-62776100D03*
D14*
X157480000Y-111760000D03*
D15*
X157480000Y-109220000D03*
X157480000Y-106680000D03*
X157480000Y-104140000D03*
X157480000Y-101600000D03*
X157480000Y-99060000D03*
X157480000Y-96520000D03*
X157480000Y-93980000D03*
D14*
X157353000Y-69253100D03*
D15*
X157353000Y-71793100D03*
X157353000Y-74333100D03*
X157353000Y-76873100D03*
X157353000Y-79413100D03*
X157353000Y-81953100D03*
X157353000Y-84493100D03*
X157353000Y-87033100D03*
D14*
X132080000Y-63500000D03*
D15*
X134620000Y-63500000D03*
X137160000Y-63500000D03*
X139700000Y-63500000D03*
X142240000Y-63500000D03*
D11*
X114000000Y-111000000D03*
X150000000Y-111000000D03*
X120000000Y-75000000D03*
M02*
