G04 #@! TF.FileFunction,Soldermask,Top*
%FSLAX46Y46*%
G04 Gerber Fmt 4.6, Leading zero omitted, Abs format (unit mm)*
G04 Created by KiCad (PCBNEW 4.0.6) date 02/19/18 18:11:23*
%MOMM*%
%LPD*%
G01*
G04 APERTURE LIST*
%ADD10C,0.100000*%
%ADD11C,2.400000*%
%ADD12R,3.900000X2.700000*%
%ADD13R,2.400000X4.200000*%
%ADD14R,2.400000X1.900000*%
%ADD15R,2.400000X2.000000*%
%ADD16R,2.100000X2.100000*%
%ADD17O,2.100000X2.100000*%
%ADD18R,1.850000X0.700000*%
%ADD19R,0.700000X1.850000*%
%ADD20C,1.900000*%
G04 APERTURE END LIST*
D10*
D11*
X156000000Y-64000000D03*
D12*
X119540000Y-71120000D03*
X114140000Y-71120000D03*
D13*
X126340000Y-64770000D03*
D14*
X120040000Y-64770000D03*
X120040000Y-67070000D03*
X120040000Y-62470000D03*
D15*
X132620000Y-82550000D03*
X136620000Y-82550000D03*
D16*
X113030000Y-66040000D03*
D17*
X113030000Y-63500000D03*
D18*
X130800000Y-87250000D03*
X130800000Y-87750000D03*
X130800000Y-88250000D03*
X130800000Y-88750000D03*
X130800000Y-89250000D03*
X130800000Y-89750000D03*
X130800000Y-90250000D03*
X130800000Y-90750000D03*
X130800000Y-91250000D03*
X130800000Y-92250000D03*
X130800000Y-92750000D03*
D19*
X132250000Y-94200000D03*
X132750000Y-94200000D03*
X133250000Y-94200000D03*
X133750000Y-94200000D03*
X134250000Y-94200000D03*
X134750000Y-94200000D03*
X135250000Y-94200000D03*
X135750000Y-94200000D03*
X136250000Y-94200000D03*
X136750000Y-94200000D03*
X137250000Y-94200000D03*
X137750000Y-94200000D03*
D18*
X130800000Y-91750000D03*
X139170000Y-92750000D03*
X139200000Y-92250000D03*
X139200000Y-91750000D03*
X139200000Y-91250000D03*
X139200000Y-90750000D03*
X139200000Y-90250000D03*
X139200000Y-89750000D03*
X139200000Y-89250000D03*
X139200000Y-88750000D03*
X139200000Y-87750000D03*
X139200000Y-87250000D03*
X139200000Y-88250000D03*
D19*
X137750000Y-85800000D03*
X137250000Y-85800000D03*
X136750000Y-85800000D03*
X136250000Y-85800000D03*
X135750000Y-85800000D03*
X135250000Y-85800000D03*
X134750000Y-85800000D03*
X134250000Y-85800000D03*
X133750000Y-85800000D03*
X133250000Y-85800000D03*
X132750000Y-85800000D03*
X132250000Y-85800000D03*
D20*
X121920000Y-81280000D03*
X121920000Y-86160000D03*
X139700000Y-100330000D03*
X144580000Y-100330000D03*
D16*
X113030000Y-78740000D03*
D17*
X113030000Y-81280000D03*
X113030000Y-83820000D03*
X113030000Y-86360000D03*
X113030000Y-88900000D03*
X113030000Y-91440000D03*
X113030000Y-93980000D03*
X113030000Y-96520000D03*
D16*
X125730000Y-111760000D03*
D17*
X128270000Y-111760000D03*
X130810000Y-111760000D03*
X133350000Y-111760000D03*
X135890000Y-111760000D03*
X138430000Y-111760000D03*
X140970000Y-111760000D03*
X143510000Y-111760000D03*
D16*
X148780500Y-75476100D03*
D17*
X148780500Y-72936100D03*
X148780500Y-70396100D03*
X148780500Y-67856100D03*
X148780500Y-65316100D03*
X148780500Y-62776100D03*
D16*
X157480000Y-111760000D03*
D17*
X157480000Y-109220000D03*
X157480000Y-106680000D03*
X157480000Y-104140000D03*
X157480000Y-101600000D03*
X157480000Y-99060000D03*
X157480000Y-96520000D03*
X157480000Y-93980000D03*
D16*
X157353000Y-69253100D03*
D17*
X157353000Y-71793100D03*
X157353000Y-74333100D03*
X157353000Y-76873100D03*
X157353000Y-79413100D03*
X157353000Y-81953100D03*
X157353000Y-84493100D03*
X157353000Y-87033100D03*
D16*
X132080000Y-63500000D03*
D17*
X134620000Y-63500000D03*
X137160000Y-63500000D03*
X139700000Y-63500000D03*
X142240000Y-63500000D03*
D11*
X114000000Y-111000000D03*
X150000000Y-111000000D03*
X120000000Y-75000000D03*
M02*
