M48
INCH,TZ
T1C0.016
T2C0.031
T3C0.039
T4C0.079
%
G90
G05
T1
X48470Y-27250
X48635Y-26375
X49000Y-35500
X49470Y-33025
X49500Y-35500
X50655Y-33260
X51095Y-31750
X51560Y-33270
X52170Y-34890
X52305Y-36125
X52490Y-34615
X52680Y-35505
X52940Y-34510
X53000Y-38500
X53250Y-39185
X53345Y-37830
X53370Y-36340
X53585Y-33070
X53830Y-34830
X54900Y-26380
X55520Y-34295
X56080Y-34740
X57800Y-34385
X58005Y-31860
X59445Y-33860
X60480Y-34550
T2
X48000Y-32000
X48000Y-33921
X55000Y-39500
X56921Y-39500
T3
X44500Y-25000
X44500Y-26000
X44500Y-31000
X44500Y-32000
X44500Y-33000
X44500Y-34000
X44500Y-35000
X44500Y-36000
X44500Y-37000
X44500Y-38000
X49500Y-44000
X50500Y-44000
X51500Y-44000
X52000Y-25000
X52500Y-44000
X53000Y-25000
X53500Y-44000
X54000Y-25000
X54500Y-44000
X55000Y-25000
X55500Y-44000
X56000Y-25000
X56500Y-44000
X58575Y-24715
X58575Y-25715
X58575Y-26715
X58575Y-27715
X58575Y-28715
X58575Y-29715
X61950Y-27265
X61950Y-28265
X61950Y-29265
X61950Y-30265
X61950Y-31265
X61950Y-32265
X61950Y-33265
X61950Y-34265
X62000Y-37000
X62000Y-38000
X62000Y-39000
X62000Y-40000
X62000Y-41000
X62000Y-42000
X62000Y-43000
X62000Y-44000
T4
X44882Y-43701
X47244Y-29528
X59055Y-43701
X61417Y-25197
T0
M30
